<svg width="1280" height="800" viewBox="0 0 1280 800" fill="none" xmlns="http://www.w3.org/2000/svg">
<g clip-path="url(#clip0_3840_1185)">
<rect width="1280" height="800" fill="#023430"/>
<path d="M744.994 254.071L584.887 299.433V21.4942L744.994 66.8473V254.071Z" fill="#B1FF05" stroke="black" stroke-linecap="round" stroke-linejoin="round"/>
<path d="M745.097 79.8375L584.887 45.5157V21.4942L745.097 66.5193V79.8375Z" fill="#E3FCF7" stroke="black" stroke-linecap="round" stroke-linejoin="round"/>
<path d="M745.097 253.743L648.113 301.729V23.7904L745.097 66.5192V253.743Z" fill="#FFEEA9" stroke="black" stroke-linecap="round" stroke-linejoin="round"/>
<path d="M725.794 236.975L667.416 265.861V98.5729L725.794 111.788V236.975Z" fill="#FFC010" stroke="black" stroke-linecap="round" stroke-linejoin="round"/>
<path d="M745.097 79.8375L648.113 49.6583V23.7904L745.097 66.5192V79.8375Z" fill="#E3FCF7" stroke="black" stroke-linecap="round" stroke-linejoin="round"/>
<path d="M701.494 230.105C712.989 230.105 722.307 205.805 722.307 175.83C722.307 145.854 712.989 121.554 701.494 121.554C690 121.554 680.682 145.854 680.682 175.83C680.682 205.805 690 230.105 701.494 230.105Z" fill="#FFE212" stroke="black" stroke-linecap="round" stroke-linejoin="round"/>
<path d="M701.494 306.8H721.05V28.8609H701.494V306.8Z" fill="white" stroke="black" stroke-linecap="round" stroke-linejoin="round"/>
<path d="M584.887 21.4943H571.359V299.433H584.887V21.4943Z" fill="white" stroke="black" stroke-linecap="round" stroke-linejoin="round"/>
<path d="M745.097 253.743L721.05 306.79V28.8515L745.097 66.5192V253.743Z" fill="#A6FFEC" stroke="black" stroke-linecap="round" stroke-linejoin="round"/>
<path d="M648.113 23.7904H630.15V301.729H648.113V23.7904Z" fill="white" stroke="black" stroke-linecap="round" stroke-linejoin="round"/>
<path d="M745.2 254.071L905.306 299.433V21.4942L745.2 66.8473V254.071Z" fill="#B1FF05" stroke="black" stroke-linecap="round" stroke-linejoin="round"/>
<path d="M745.153 79.8375L905.362 45.5157V21.4942L745.153 66.5193V79.8375Z" fill="#E3FCF7" stroke="black" stroke-linecap="round" stroke-linejoin="round"/>
<path d="M745.097 253.743L842.081 301.729V23.7904L745.097 66.5192V253.743Z" fill="#FFEEA9" stroke="black" stroke-linecap="round" stroke-linejoin="round"/>
<path d="M745.153 79.8375L842.137 49.6583V23.7904L745.153 66.5192V79.8375Z" fill="#E3FCF7" stroke="black" stroke-linecap="round" stroke-linejoin="round"/>
<path d="M788.7 28.8515H769.144V306.79H788.7V28.8515Z" fill="white" stroke="black" stroke-linecap="round" stroke-linejoin="round"/>
<path d="M905.306 299.424H918.834V21.4848H905.306V299.424Z" fill="white" stroke="black" stroke-linecap="round" stroke-linejoin="round"/>
<path d="M842.09 301.729H860.053V23.7904H842.09V301.729Z" fill="white" stroke="black" stroke-linecap="round" stroke-linejoin="round"/>
<path d="M607.697 27.9049V50.3987L584.887 45.5157V21.4942L607.697 27.9049Z" fill="white" stroke="black" stroke-linecap="round" stroke-linejoin="round"/>
<path d="M607.697 27.9049L584.887 45.5157" stroke="black" stroke-linecap="round" stroke-linejoin="round"/>
<path d="M584.887 21.4942L607.697 50.3987" stroke="black" stroke-linecap="round" stroke-linejoin="round"/>
<path d="M832.8 45.7875C834.907 45.7875 836.616 43.2278 836.616 40.0703C836.616 36.9128 834.907 34.3531 832.8 34.3531C830.693 34.3531 828.984 36.9128 828.984 40.0703C828.984 43.2278 830.693 45.7875 832.8 45.7875Z" fill="#00ED64" stroke="black" stroke-linecap="round" stroke-linejoin="round"/>
<path d="M745.097 253.743L769.144 306.79V28.8515L745.097 66.5192V253.743Z" fill="#A6FFEC" stroke="black" stroke-linecap="round" stroke-linejoin="round"/>
<path d="M822.665 49.6958C824.773 49.6958 826.481 47.1361 826.481 43.9786C826.481 40.8211 824.773 38.2614 822.665 38.2614C820.558 38.2614 818.85 40.8211 818.85 43.9786C818.85 47.1361 820.558 49.6958 822.665 49.6958Z" fill="#00ED64" stroke="black" stroke-linecap="round" stroke-linejoin="round"/>
<path d="M812.531 53.6041C814.639 53.6041 816.347 51.0444 816.347 47.8869C816.347 44.7294 814.639 42.1697 812.531 42.1697C810.424 42.1697 808.716 44.7294 808.716 47.8869C808.716 51.0444 810.424 53.6041 812.531 53.6041Z" fill="#00ED64" stroke="black" stroke-linecap="round" stroke-linejoin="round"/>
<path d="M745.097 77.0913L721.05 57.8873V28.8515L745.097 66.5192V77.0913Z" fill="#00D2FF" stroke="black" stroke-linecap="round" stroke-linejoin="round"/>
<path d="M745.097 77.0913L769.144 57.8873V28.8515L745.097 66.5192V77.0913Z" fill="#00D2FF" stroke="black" stroke-linecap="round" stroke-linejoin="round"/>
<path d="M831.891 148.818L798.891 144.816V86.0889L831.891 78.1223V148.818Z" fill="#FF9F10" stroke="black" stroke-linecap="round" stroke-linejoin="round"/>
<path d="M912.075 233.329C909.853 233.329 908.053 229.449 908.053 224.669C908.053 219.889 909.853 216.009 912.075 216.009H931.462V233.32H912.075V233.329Z" fill="#FF9F10" stroke="black" stroke-linecap="round" stroke-linejoin="round"/>
<path d="M931.454 233.339C933.675 233.339 935.475 229.462 935.475 224.679C935.475 219.896 933.675 216.019 931.454 216.019C929.232 216.019 927.432 219.896 927.432 224.679C927.432 229.462 929.232 233.339 931.454 233.339Z" fill="white" stroke="black" stroke-linecap="round" stroke-linejoin="round"/>
<path d="M912.075 191.219C909.853 191.219 908.053 187.339 908.053 182.559C908.053 177.779 909.853 173.899 912.075 173.899H931.462V191.21H912.075V191.219Z" fill="#FF9F10" stroke="black" stroke-linecap="round" stroke-linejoin="round"/>
<path d="M931.454 191.219C933.675 191.219 935.475 187.342 935.475 182.559C935.475 177.776 933.675 173.899 931.454 173.899C929.232 173.899 927.432 177.776 927.432 182.559C927.432 187.342 929.232 191.219 931.454 191.219Z" fill="white" stroke="black" stroke-linecap="round" stroke-linejoin="round"/>
<path d="M600.338 85.7702V152.914C600.338 157.235 603.535 160.89 607.819 161.462C612.985 162.155 617.579 158.135 617.579 152.914V123.307C617.579 116.727 623.757 111.891 630.15 113.466" stroke="black" stroke-linecap="round" stroke-linejoin="round"/>
<path d="M600.338 85.7702C602.481 85.7702 604.219 83.6973 604.219 81.1402C604.219 78.5832 602.481 76.5103 600.338 76.5103C598.194 76.5103 596.456 78.5832 596.456 81.1402C596.456 83.6973 598.194 85.7702 600.338 85.7702Z" stroke="black" stroke-linecap="round" stroke-linejoin="round"/>
<path d="M889.509 246.61C891.653 246.61 893.391 244.537 893.391 241.98C893.391 239.423 891.653 237.35 889.509 237.35C887.366 237.35 885.628 239.423 885.628 241.98C885.628 244.537 887.366 246.61 889.509 246.61Z" stroke="black" stroke-linecap="round" stroke-linejoin="round"/>
<path d="M889.509 237.35V145.229C889.509 140.477 885.656 136.616 880.894 136.616C876.141 136.616 872.278 140.468 872.278 145.229V189.523C872.278 195.943 866.297 200.676 860.044 199.214" stroke="black" stroke-linecap="round" stroke-linejoin="round"/>
<path d="M651.009 399.708H689.868C692.728 399.708 695.043 402.023 695.043 404.882C695.043 407.741 692.728 410.056 689.868 410.056H651.009C587.587 410.056 535.996 461.632 535.996 525.036V647.299C535.996 650.158 533.681 652.473 530.821 652.473C527.962 652.473 525.646 650.158 525.646 647.299V525.036C525.646 455.924 581.887 399.699 651.018 399.699L651.009 399.708Z" fill="#00ED64" stroke="black" stroke-miterlimit="10"/>
<path d="M710.381 396.419H691.19C688.987 396.419 687.206 400.252 687.206 404.985C687.206 409.718 688.987 413.552 691.19 413.552H710.381C712.584 413.552 714.365 409.718 714.365 404.985C714.365 400.252 712.584 396.419 710.381 396.419Z" fill="#A6FFEC" stroke="black" stroke-linecap="round" stroke-linejoin="round"/>
<path d="M929.615 182.55C929.615 179.766 931.865 177.517 934.65 177.517H1000.12C1002.91 177.517 1005.16 179.766 1005.16 182.55C1005.16 185.333 1002.91 187.583 1000.12 187.583H934.65C931.865 187.583 929.615 185.333 929.615 182.55Z" fill="#00ED64" stroke="black" stroke-miterlimit="10"/>
<path d="M948 747.134C945.038 747.05 942.76 744.463 942.76 741.501V687.385C942.76 648.583 974.044 616.436 1012.86 616.68C1046.04 616.886 1073.09 589.846 1072.88 556.668C1072.64 517.866 1104.8 486.591 1143.61 486.591H1228.68C1261.55 486.591 1288.45 460.02 1288.36 427.16C1288.25 388.218 1319.9 356.502 1358.83 356.502H1392.82C1395.79 356.502 1398.39 358.788 1398.47 361.769C1398.54 364.749 1396.1 367.317 1393.06 367.317H1358.85C1325.98 367.317 1299.08 393.888 1299.17 426.748C1299.28 465.69 1267.63 497.406 1228.7 497.406H1143.35C1110.23 497.406 1083.9 524.38 1083.69 557.502C1083.45 595.995 1052.18 627.252 1013.68 627.495C980.56 627.702 953.578 654.019 953.578 687.132V741.726C953.578 744.763 951.066 747.219 948.01 747.125L948 747.134Z" fill="#00ED64" stroke="black" stroke-miterlimit="10"/>
<path d="M1289.43 521.7H1016.01V733.75H1289.43V521.7Z" fill="white" stroke="black" stroke-linecap="round" stroke-linejoin="round"/>
<path d="M929.784 224.688C929.784 221.904 932.034 219.655 934.819 219.655H1000.29C1003.08 219.655 1005.33 221.904 1005.33 224.688C1005.33 227.472 1003.08 229.721 1000.29 229.721H934.819C932.034 229.721 929.784 227.472 929.784 224.688Z" fill="#00ED64" stroke="black" stroke-miterlimit="10"/>
<path d="M637.622 639.305H479.531V767.904H637.622V639.305Z" fill="#001E2B" stroke="black" stroke-linecap="round" stroke-linejoin="round"/>
<path d="M637.622 767.904L645.947 773.986V645.387L637.622 639.305V767.904Z" fill="white" stroke="black" stroke-linecap="round" stroke-linejoin="round"/>
<path d="M637.622 767.904L645.947 773.986H487.856L479.531 767.904H637.622Z" fill="black" stroke="black" stroke-linecap="round" stroke-linejoin="round"/>
<path d="M510.609 653.082H494.231V659.259H510.609V653.082Z" fill="#00ED64" stroke="black" stroke-linecap="round" stroke-linejoin="round"/>
<path d="M510.609 666.747H494.231V672.924H510.609V666.747Z" fill="#00ED64" stroke="black" stroke-linecap="round" stroke-linejoin="round"/>
<path d="M510.609 735.035H494.231V741.211H510.609V735.035Z" fill="#00ED64" stroke="black" stroke-linecap="round" stroke-linejoin="round"/>
<path d="M510.609 747.95H494.231V754.126H510.609V747.95Z" fill="#00ED64" stroke="black" stroke-linecap="round" stroke-linejoin="round"/>
<path d="M564.825 680.403H509.053V686.579H564.825V680.403Z" fill="#00ED64" stroke="black" stroke-linecap="round" stroke-linejoin="round"/>
<path d="M550.875 694.058H522.994V700.235H550.875V694.058Z" fill="#00ED64" stroke="black" stroke-linecap="round" stroke-linejoin="round"/>
<path d="M567.113 721.379H509.053V727.555H567.113V721.379Z" fill="#00ED64" stroke="black" stroke-linecap="round" stroke-linejoin="round"/>
<path d="M581.053 707.723H522.994V713.9H581.053V707.723Z" fill="#00ED64" stroke="black" stroke-linecap="round" stroke-linejoin="round"/>
<path d="M611.915 707.723H586.875V713.9H611.915V707.723Z" fill="#00ED64" stroke="black" stroke-linecap="round" stroke-linejoin="round"/>
<path d="M1301.15 106.183H967.096V296.537H1301.15V106.183Z" fill="white" stroke="black" stroke-linecap="round" stroke-linejoin="round"/>
<path d="M1301.15 106.183H967.096V126.39H1301.15V106.183Z" fill="#F9EBFF" stroke="black" stroke-linecap="round" stroke-linejoin="round"/>
<path d="M1082.33 247.313H1062.99V266.648H1082.33V247.313Z" fill="#5400F8" stroke="black" stroke-linecap="round" stroke-linejoin="round"/>
<path d="M1058.92 247.313H1039.58V266.648H1058.92V247.313Z" fill="#B45AF2" stroke="black" stroke-linecap="round" stroke-linejoin="round"/>
<path d="M1035.52 247.313H1016.18V266.648H1035.52V247.313Z" fill="#F2C5EE" stroke="black" stroke-linecap="round" stroke-linejoin="round"/>
<path d="M1012.11 247.313H992.774V266.648H1012.11V247.313Z" fill="#F9EBFF" stroke="black" stroke-linecap="round" stroke-linejoin="round"/>
<path d="M977.212 120.017C979.273 120.017 980.944 118.347 980.944 116.287C980.944 114.227 979.273 112.557 977.212 112.557C975.152 112.557 973.481 114.227 973.481 116.287C973.481 118.347 975.152 120.017 977.212 120.017Z" fill="white" stroke="black" stroke-linecap="round" stroke-linejoin="round"/>
<path d="M988.828 120.017C990.888 120.017 992.559 118.347 992.559 116.287C992.559 114.227 990.888 112.557 988.828 112.557C986.767 112.557 985.096 114.227 985.096 116.287C985.096 118.347 986.767 120.017 988.828 120.017Z" fill="white" stroke="black" stroke-linecap="round" stroke-linejoin="round"/>
<path d="M1000.44 120.017C1002.5 120.017 1004.17 118.347 1004.17 116.287C1004.17 114.227 1002.5 112.557 1000.44 112.557C998.383 112.557 996.712 114.227 996.712 116.287C996.712 118.347 998.383 120.017 1000.44 120.017Z" fill="white" stroke="black" stroke-linecap="round" stroke-linejoin="round"/>
<path d="M1275.48 149.653H1093.81V266.658H1275.48V149.653Z" fill="#5400F8" stroke="black" stroke-linecap="round" stroke-linejoin="round"/>
<path d="M1082.34 149.653H992.774V239.197H1082.34V149.653Z" fill="#E3FCF7" stroke="black" stroke-linecap="round" stroke-linejoin="round"/>
<path d="M1093.81 225.204C1113.03 214.866 1134.09 214.275 1166.47 222.617C1198.86 230.958 1215 165.408 1239.14 164.302C1263.28 163.196 1267.36 201.735 1275.48 201.838V266.658H1093.81V225.204Z" fill="#F2C5EE" stroke="black" stroke-linecap="round" stroke-linejoin="round"/>
<path d="M1093.81 208.155H1275.47" stroke="black" stroke-linecap="round" stroke-linejoin="round"/>
<path d="M1093.81 178.904H1275.47" stroke="black" stroke-linecap="round" stroke-linejoin="round"/>
<path d="M1093.81 237.406H1275.47" stroke="black" stroke-linecap="round" stroke-linejoin="round"/>
<path d="M1202.8 149.653V266.658" stroke="black" stroke-linecap="round" stroke-linejoin="round"/>
<path d="M1130.14 149.653V266.658" stroke="black" stroke-linecap="round" stroke-linejoin="round"/>
<path d="M1166.47 149.653V266.658" stroke="black" stroke-linecap="round" stroke-linejoin="round"/>
<path d="M1239.14 149.653V266.658" stroke="black" stroke-linecap="round" stroke-linejoin="round"/>
<path d="M1037.21 224.416C1053.78 224.416 1067.21 210.988 1067.21 194.425C1067.21 177.861 1053.78 164.433 1037.21 164.433C1020.64 164.433 1007.21 177.861 1007.21 194.425C1007.21 210.988 1020.64 224.416 1037.21 224.416Z" fill="white" stroke="black" stroke-linecap="round" stroke-linejoin="round"/>
<path d="M1037.21 214.697C1048.41 214.697 1057.49 205.621 1057.49 194.425C1057.49 183.228 1048.41 174.152 1037.21 174.152C1026.01 174.152 1016.93 183.228 1016.93 194.425C1016.93 205.621 1026.01 214.697 1037.21 214.697Z" fill="white" stroke="black" stroke-linecap="round" stroke-linejoin="round"/>
<path d="M1037.21 205.165C1043.15 205.165 1047.96 200.356 1047.96 194.425C1047.96 188.493 1043.15 183.684 1037.21 183.684C1031.28 183.684 1026.47 188.493 1026.47 194.425C1026.47 200.356 1031.28 205.165 1037.21 205.165Z" fill="white" stroke="black" stroke-linecap="round" stroke-linejoin="round"/>
<path d="M1037.21 164.433V224.416" stroke="black" stroke-linecap="round" stroke-linejoin="round"/>
<path d="M1067.21 194.425H1007.22" stroke="black" stroke-linecap="round" stroke-linejoin="round"/>
<path d="M1053.38 178.744C1054.65 178.744 1055.68 177.716 1055.68 176.448C1055.68 175.18 1054.65 174.152 1053.38 174.152C1052.12 174.152 1051.09 175.18 1051.09 176.448C1051.09 177.716 1052.12 178.744 1053.38 178.744Z" fill="#00ED64" stroke="black" stroke-linecap="round" stroke-linejoin="round"/>
<path d="M1045.67 189.345C1046.94 189.345 1047.97 188.317 1047.97 187.048C1047.97 185.78 1046.94 184.752 1045.67 184.752C1044.4 184.752 1043.37 185.78 1043.37 187.048C1043.37 188.317 1044.4 189.345 1045.67 189.345Z" fill="#00ED64" stroke="black" stroke-linecap="round" stroke-linejoin="round"/>
<path d="M1012.27 204.106C1013.54 204.106 1014.57 203.078 1014.57 201.81C1014.57 200.542 1013.54 199.514 1012.27 199.514C1011.01 199.514 1009.98 200.542 1009.98 201.81C1009.98 203.078 1011.01 204.106 1012.27 204.106Z" fill="#00ED64" stroke="black" stroke-linecap="round" stroke-linejoin="round"/>
<path d="M1314.29 309.874L1300.87 296.537H966.591L980.006 309.874H1314.29Z" fill="black" stroke="black" stroke-linecap="round" stroke-linejoin="round"/>
<path d="M900.215 569.302H575.475L746.7 354.102H1071.43L900.215 569.302Z" fill="#E9FF99" stroke="black" stroke-linecap="round" stroke-linejoin="round"/>
<path d="M791.7 384.741H719.99L757.556 337.522H829.265L791.7 384.741Z" fill="#00ED64" stroke="black" stroke-linecap="round" stroke-linejoin="round"/>
<path d="M791.699 384.741L801.449 416.213L839.015 369.004L829.265 337.522L791.699 384.741Z" fill="white" stroke="black" stroke-linecap="round" stroke-linejoin="round"/>
<path d="M801.449 416.213H710.465L719.99 384.741H791.924L801.449 416.213Z" fill="black" stroke="black" stroke-linecap="round" stroke-linejoin="round"/>
<path d="M890.972 384.741H819.253L856.818 337.522H928.537L890.972 384.741Z" fill="#00ED64" stroke="black" stroke-linecap="round" stroke-linejoin="round"/>
<path d="M890.971 384.741L900.721 416.213L938.278 369.004L928.537 337.522L890.971 384.741Z" fill="white" stroke="black" stroke-linecap="round" stroke-linejoin="round"/>
<path d="M900.722 416.213H809.728L819.253 384.741H891.187L900.722 416.213Z" fill="black" stroke="black" stroke-linecap="round" stroke-linejoin="round"/>
<path d="M990.234 384.741H918.525L956.09 337.522H1027.8L990.234 384.741Z" fill="#00ED64" stroke="black" stroke-linecap="round" stroke-linejoin="round"/>
<path d="M990.234 384.741L999.984 416.213L1037.55 369.004L1027.8 337.522L990.234 384.741Z" fill="white" stroke="black" stroke-linecap="round" stroke-linejoin="round"/>
<path d="M999.984 416.213H909L918.525 384.741H990.459L999.984 416.213Z" fill="black" stroke="black" stroke-linecap="round" stroke-linejoin="round"/>
<path d="M736.95 453.609H665.24L702.806 406.4H774.515L736.95 453.609Z" fill="#00ED64" stroke="black" stroke-linecap="round" stroke-linejoin="round"/>
<path d="M736.949 453.609L746.699 485.091L784.265 437.873L774.515 406.4L736.949 453.609Z" fill="white" stroke="black" stroke-linecap="round" stroke-linejoin="round"/>
<path d="M746.699 485.091H655.715L665.24 453.609H737.174L746.699 485.091Z" fill="black" stroke="black" stroke-linecap="round" stroke-linejoin="round"/>
<path d="M836.221 453.609H764.512L802.068 406.4H873.787L836.221 453.609Z" fill="#00ED64" stroke="black" stroke-linecap="round" stroke-linejoin="round"/>
<path d="M836.221 453.609L845.971 485.091L883.537 437.873L873.787 406.4L836.221 453.609Z" fill="white" stroke="black" stroke-linecap="round" stroke-linejoin="round"/>
<path d="M845.971 485.091H754.987L764.512 453.609H836.446L845.971 485.091Z" fill="black" stroke="black" stroke-linecap="round" stroke-linejoin="round"/>
<path d="M935.493 453.609H863.775L901.34 406.4H973.059L935.493 453.609Z" fill="#00ED64" stroke="black" stroke-linecap="round" stroke-linejoin="round"/>
<path d="M935.493 453.609L945.243 485.091L982.8 437.873L973.059 406.4L935.493 453.609Z" fill="white" stroke="black" stroke-linecap="round" stroke-linejoin="round"/>
<path d="M945.244 485.091H854.25L863.775 453.609H935.709L945.244 485.091Z" fill="black" stroke="black" stroke-linecap="round" stroke-linejoin="round"/>
<path d="M681.853 522.834H610.134L647.7 475.616H719.418L681.853 522.834Z" fill="#00ED64" stroke="black" stroke-linecap="round" stroke-linejoin="round"/>
<path d="M681.853 522.834L691.603 554.306L729.159 507.098L719.418 475.616L681.853 522.834Z" fill="white" stroke="black" stroke-linecap="round" stroke-linejoin="round"/>
<path d="M691.603 554.306H600.609L610.134 522.834H682.069L691.603 554.306Z" fill="black" stroke="black" stroke-linecap="round" stroke-linejoin="round"/>
<path d="M781.116 522.834H709.406L746.972 475.616H818.681L781.116 522.834Z" fill="#00ED64" stroke="black" stroke-linecap="round" stroke-linejoin="round"/>
<path d="M781.115 522.834L790.865 554.306L828.431 507.098L818.681 475.616L781.115 522.834Z" fill="white" stroke="black" stroke-linecap="round" stroke-linejoin="round"/>
<path d="M790.865 554.306H699.881L709.406 522.834H781.34L790.865 554.306Z" fill="black" stroke="black" stroke-linecap="round" stroke-linejoin="round"/>
<path d="M880.387 522.834H808.678L846.243 475.616H917.953L880.387 522.834Z" fill="#00ED64" stroke="black" stroke-linecap="round" stroke-linejoin="round"/>
<path d="M880.387 522.834L890.137 554.306L927.702 507.098L917.952 475.616L880.387 522.834Z" fill="white" stroke="black" stroke-linecap="round" stroke-linejoin="round"/>
<path d="M890.137 554.306H799.152L808.677 522.834H880.612L890.137 554.306Z" fill="black" stroke="black" stroke-linecap="round" stroke-linejoin="round"/>
<path d="M899.737 569.302H575.475V594.13H899.737V569.302Z" fill="#B1FF05" stroke="black" stroke-linecap="round" stroke-linejoin="round"/>
<path d="M899.746 594.13L1071.43 378.93V354.102L899.746 569.302V594.13Z" fill="white" stroke="black" stroke-linecap="round" stroke-linejoin="round"/>
<path d="M823.453 575.469H734.193V588H823.453V575.469Z" fill="white" stroke="black" stroke-linecap="round" stroke-linejoin="round"/>
<path d="M706.584 446.917C697.556 446.917 694.274 442.597 699.046 436.561C702.037 432.774 706.762 429.916 712.171 428.294C710.596 426.767 710.877 424.452 713.006 421.771C716.971 416.766 725.502 413.092 733.415 413.092C741.515 413.092 744.102 416.757 740.127 421.771C737.99 424.461 734.596 426.767 730.668 428.294C733.518 429.916 733.631 432.774 730.621 436.561C725.821 442.597 715.809 446.917 706.584 446.917ZM710.343 442.184C715.762 442.184 721.012 439.56 723.459 436.467C725.952 433.327 724.837 430.74 719.474 430.74C714.177 430.74 708.834 433.327 706.349 436.467C703.902 439.56 705.112 442.184 710.343 442.184ZM722.821 426.448C726.899 426.448 731.062 424.461 732.937 422.099C734.887 419.644 733.809 417.741 729.731 417.741C725.652 417.741 721.621 419.644 719.671 422.099C717.796 424.461 718.94 426.448 722.821 426.448Z" fill="black"/>
<path d="M905.297 446.655C896.109 446.655 893.662 441.491 899.466 434.199L906.197 425.736C911.972 418.472 922.565 413.355 931.706 413.355C940.912 413.355 943.378 418.472 937.64 425.736L930.947 434.199C925.181 441.491 914.54 446.655 905.297 446.655ZM909.206 441.716C914.531 441.716 920.465 438.932 924.225 434.19L930.928 425.726C934.631 421.049 933.141 418.238 927.834 418.238C922.594 418.238 916.64 421.049 912.919 425.726L906.197 434.19C902.428 438.932 903.956 441.716 909.215 441.716H909.206Z" fill="black"/>
<path d="M807.187 447.189C804.196 447.189 803.015 445.568 804.6 443.571C806.184 441.575 809.962 439.954 812.943 439.954C815.925 439.954 817.153 441.622 815.596 443.571C814.04 445.521 810.234 447.189 807.187 447.189Z" fill="black"/>
<path d="M1144.25 302.442C1144.25 300.651 1140.43 299.199 1135.73 299.199C1131.02 299.199 1127.2 300.651 1127.2 302.442V315.338H1144.25V302.442Z" fill="#E3FCF7" stroke="black" stroke-linecap="round" stroke-linejoin="round"/>
<path d="M1135.73 318.581C1140.43 318.581 1144.25 317.129 1144.25 315.338C1144.25 313.547 1140.43 312.095 1135.73 312.095C1131.02 312.095 1127.2 313.547 1127.2 315.338C1127.2 317.129 1131.02 318.581 1135.73 318.581Z" fill="#E3FCF7" stroke="black" stroke-linecap="round" stroke-linejoin="round"/>
<path d="M1135.72 299.199V312.095" stroke="black" stroke-linecap="round" stroke-linejoin="round"/>
<path d="M1131.31 299.714V312.451" stroke="black" stroke-linecap="round" stroke-linejoin="round"/>
<path d="M1140.25 299.714V312.451" stroke="black" stroke-linecap="round" stroke-linejoin="round"/>
<path d="M993.019 459.186C991.097 459.186 989.531 462.072 989.531 465.625C989.531 469.177 991.087 472.063 993.019 472.063H1006.88V459.186H993.019Z" fill="#F9EBFF" stroke="black" stroke-linecap="round" stroke-linejoin="round"/>
<path d="M1006.88 472.063C1008.81 472.063 1010.37 469.181 1010.37 465.625C1010.37 462.069 1008.81 459.186 1006.88 459.186C1004.96 459.186 1003.4 462.069 1003.4 465.625C1003.4 469.181 1004.96 472.063 1006.88 472.063Z" fill="white" stroke="black" stroke-linecap="round" stroke-linejoin="round"/>
<path d="M1077.28 471.032H1011.04C1008.05 471.032 1005.63 468.614 1005.63 465.625C1005.63 462.635 1008.05 460.217 1011.04 460.217H1077.28C1106.48 460.217 1130.24 436.467 1130.24 407.272V319.256C1130.24 316.266 1132.66 313.848 1135.65 313.848C1138.64 313.848 1141.06 316.266 1141.06 319.256V407.272C1141.06 442.428 1112.46 471.023 1077.29 471.023L1077.28 471.032Z" fill="#00ED64" stroke="black" stroke-miterlimit="10"/>
<path d="M804.938 583.773C804.938 581.524 801.169 579.706 796.529 579.706C791.888 579.706 788.119 581.524 788.119 583.773V616.53H804.947V583.773H804.938Z" fill="#FF9F10" stroke="black" stroke-linecap="round" stroke-linejoin="round"/>
<path d="M796.529 620.597C801.173 620.597 804.938 618.776 804.938 616.53C804.938 614.283 801.173 612.462 796.529 612.462C791.884 612.462 788.119 614.283 788.119 616.53C788.119 618.776 791.884 620.597 796.529 620.597Z" fill="white" stroke="black" stroke-linecap="round" stroke-linejoin="round"/>
<path d="M1289.43 733.75H1016.01V752.308H1289.43V733.75Z" fill="black" stroke="black" stroke-linecap="round" stroke-linejoin="round"/>
<path d="M796.528 612.472V579.706" stroke="black" stroke-linecap="round" stroke-linejoin="round"/>
<path d="M802.396 613.549V580.943" stroke="black" stroke-linecap="round" stroke-linejoin="round"/>
<path d="M790.734 613.549V580.943" stroke="black" stroke-linecap="round" stroke-linejoin="round"/>
<path d="M769.688 583.773C769.688 581.524 765.919 579.706 761.279 579.706C756.638 579.706 752.869 581.524 752.869 583.773V616.53H769.697V583.773H769.688Z" fill="#00D2FF" stroke="black" stroke-linecap="round" stroke-linejoin="round"/>
<path d="M761.279 620.597C765.923 620.597 769.688 618.776 769.688 616.53C769.688 614.283 765.923 612.462 761.279 612.462C756.634 612.462 752.869 614.283 752.869 616.53C752.869 618.776 756.634 620.597 761.279 620.597Z" fill="white" stroke="black" stroke-linecap="round" stroke-linejoin="round"/>
<path d="M761.279 612.472V579.706" stroke="black" stroke-linecap="round" stroke-linejoin="round"/>
<path d="M767.156 613.549V580.943" stroke="black" stroke-linecap="round" stroke-linejoin="round"/>
<path d="M755.494 613.549V580.943" stroke="black" stroke-linecap="round" stroke-linejoin="round"/>
<path d="M1114.48 744.304C1114.48 765.401 1064.68 782.506 1003.25 782.506C941.812 782.506 892.012 765.401 892.012 744.304V728.052H1114.47V744.304H1114.48Z" fill="white" stroke="black" stroke-linecap="round" stroke-linejoin="round"/>
<path d="M1003.26 766.254C1064.69 766.254 1114.49 749.15 1114.49 728.052C1114.49 706.954 1064.69 689.85 1003.26 689.85C941.824 689.85 892.022 706.954 892.022 728.052C892.022 749.15 941.824 766.254 1003.26 766.254Z" fill="#FFC010" stroke="black" stroke-linecap="round" stroke-linejoin="round"/>
<path d="M1114.48 728.052C1114.48 714.359 1093.49 702.344 1061.96 695.605L1003.25 728.052L1101.72 745.822C1109.86 740.517 1114.47 734.463 1114.47 728.052H1114.48Z" fill="#FFEEA9" stroke="black" stroke-linecap="round" stroke-linejoin="round"/>
<path d="M1016.39 690.113L1003.26 728.052L1061.97 695.605C1048.44 692.709 1032.98 690.787 1016.4 690.122L1016.39 690.113Z" fill="#FFE212" stroke="black" stroke-linecap="round" stroke-linejoin="round"/>
<path d="M1003.26 728.052L898.893 741.295C914.578 755.869 955.378 766.254 1003.26 766.254C1046.01 766.254 1083.11 757.969 1101.73 745.822L1003.26 728.052Z" fill="#FF9F10" stroke="black" stroke-linecap="round" stroke-linejoin="round"/>
<path d="M906.122 761.212C909.162 761.212 911.625 758.509 911.625 755.176C911.625 751.842 909.162 749.14 906.122 749.14C903.083 749.14 900.619 751.842 900.619 755.176C900.619 758.509 903.083 761.212 906.122 761.212Z" fill="black" stroke="black" stroke-linecap="round" stroke-linejoin="round"/>
<path d="M905.016 760.518C874.594 760.518 845.991 748.671 824.475 727.171C802.96 705.661 791.119 677.066 791.119 646.653V620.597C791.119 617.608 793.538 615.19 796.529 615.19C799.519 615.19 801.938 617.608 801.938 620.597V646.653C801.938 703.478 848.185 749.712 905.025 749.712C908.016 749.712 910.435 752.13 910.435 755.12C910.435 758.109 908.016 760.527 905.025 760.527L905.016 760.518Z" fill="#00ED64" stroke="black" stroke-miterlimit="10"/>
<path d="M643.2 693.562C645.338 693.562 647.072 691.027 647.072 687.901C647.072 684.774 645.338 682.24 643.2 682.24C641.062 682.24 639.328 684.774 639.328 687.901C639.328 691.027 641.062 693.562 643.2 693.562Z" fill="black" stroke="black" stroke-linecap="round" stroke-linejoin="round"/>
<path d="M694.003 693.262H645.534C642.544 693.262 640.125 690.844 640.125 687.854C640.125 684.864 642.544 682.446 645.534 682.446H694.003C710.531 682.446 726.066 676.016 737.756 664.329C749.447 652.642 755.878 637.112 755.878 620.588C755.878 617.598 758.297 615.18 761.287 615.18C764.278 615.18 766.697 617.598 766.697 620.588C766.697 639.998 759.141 658.246 745.406 671.968C731.681 685.689 713.428 693.252 694.012 693.252L694.003 693.262Z" fill="#00ED64" stroke="black" stroke-miterlimit="10"/>
<path d="M1289.43 521.7H1016.01V538.964H1289.43V521.7Z" fill="#B45AF2" stroke="black" stroke-linecap="round" stroke-linejoin="round"/>
<path d="M1033.27 521.7H1016.01V538.964H1033.27V521.7Z" fill="white" stroke="black" stroke-linecap="round" stroke-linejoin="round"/>
<path d="M1033.27 521.7L1016.01 538.964" stroke="black" stroke-linecap="round" stroke-linejoin="round"/>
<path d="M1016.01 521.7L1033.27 538.964" stroke="black" stroke-linecap="round" stroke-linejoin="round"/>
<path d="M1149.75 562.62H1039.04V644.216H1149.75V562.62Z" fill="#E9FF99" stroke="black" stroke-linecap="round" stroke-linejoin="round"/>
<path d="M1039.04 620.85L1070.43 572.376L1101.13 620.85L1123.11 596.613L1149.75 627.73V644.216H1039.04V620.85Z" fill="#00ED64" stroke="black" stroke-linecap="round" stroke-linejoin="round"/>
<path d="M1109.5 591.206C1115.28 591.206 1119.97 586.523 1119.97 580.746C1119.97 574.969 1115.28 570.286 1109.5 570.286C1103.73 570.286 1099.04 574.969 1099.04 580.746C1099.04 586.523 1103.73 591.206 1109.5 591.206Z" fill="#FFE212" stroke="black" stroke-linecap="round" stroke-linejoin="round"/>
<mask id="mask0_3840_1185" style="mask-type:luminance" maskUnits="userSpaceOnUse" x="1162" y="562" width="128" height="140">
<path d="M1289.43 562.62H1162.5V701.228H1289.43V562.62Z" fill="white"/>
</mask>
<g mask="url(#mask0_3840_1185)">
<path d="M1289.43 562.62H1162.5V701.228H1289.43V562.62Z" fill="#00D2FF" stroke="black" stroke-linecap="round" stroke-linejoin="round"/>
<path d="M1180.97 701.219H1143.84L1162.41 666.644L1180.97 701.219Z" stroke="black" stroke-linecap="round" stroke-linejoin="round"/>
<path d="M1218.1 701.219H1180.97L1199.53 666.644L1218.1 701.219Z" stroke="black" stroke-linecap="round" stroke-linejoin="round"/>
<path d="M1255.23 701.219H1218.1L1236.67 666.644L1255.23 701.219Z" stroke="black" stroke-linecap="round" stroke-linejoin="round"/>
<path d="M1292.35 701.219H1255.23L1273.79 666.644L1292.35 701.219Z" stroke="black" stroke-linecap="round" stroke-linejoin="round"/>
<path d="M1199.53 666.644H1162.41L1180.97 632.06L1199.53 666.644Z" stroke="black" stroke-linecap="round" stroke-linejoin="round"/>
<path d="M1236.67 666.644H1199.53L1218.1 632.06L1236.67 666.644Z" stroke="black" stroke-linecap="round" stroke-linejoin="round"/>
<path d="M1273.79 666.644H1236.67L1255.23 632.06L1273.79 666.644Z" stroke="black" stroke-linecap="round" stroke-linejoin="round"/>
<path d="M1310.93 666.644H1273.79L1292.35 632.06L1310.93 666.644Z" stroke="black" stroke-linecap="round" stroke-linejoin="round"/>
<path d="M1180.97 631.919H1143.84L1162.41 597.335L1180.97 631.919Z" stroke="black" stroke-linecap="round" stroke-linejoin="round"/>
<path d="M1218.1 631.919H1180.97L1199.53 597.335L1218.1 631.919Z" stroke="black" stroke-linecap="round" stroke-linejoin="round"/>
<path d="M1255.23 631.919H1218.1L1236.67 597.335L1255.23 631.919Z" stroke="black" stroke-linecap="round" stroke-linejoin="round"/>
<path d="M1292.35 631.919H1255.23L1273.79 597.335L1292.35 631.919Z" stroke="black" stroke-linecap="round" stroke-linejoin="round"/>
<path d="M1199.53 597.195H1162.41L1180.97 562.62L1199.53 597.195Z" stroke="black" stroke-linecap="round" stroke-linejoin="round"/>
<path d="M1236.67 597.195H1199.53L1218.1 562.62L1236.67 597.195Z" stroke="black" stroke-linecap="round" stroke-linejoin="round"/>
<path d="M1273.79 597.195H1236.67L1255.23 562.62L1273.79 597.195Z" stroke="black" stroke-linecap="round" stroke-linejoin="round"/>
<path d="M1310.93 597.195H1273.79L1292.35 562.62L1310.93 597.195Z" stroke="black" stroke-linecap="round" stroke-linejoin="round"/>
<path d="M1180.97 636.137C1183.22 636.137 1185.05 634.312 1185.05 632.06C1185.05 629.808 1183.22 627.983 1180.97 627.983C1178.72 627.983 1176.89 629.808 1176.89 632.06C1176.89 634.312 1178.72 636.137 1180.97 636.137Z" fill="#0D427C" stroke="black" stroke-miterlimit="10"/>
<path d="M1218.1 636.137C1220.36 636.137 1222.18 634.312 1222.18 632.06C1222.18 629.808 1220.36 627.983 1218.1 627.983C1215.85 627.983 1214.03 629.808 1214.03 632.06C1214.03 634.312 1215.85 636.137 1218.1 636.137Z" fill="#0D427C" stroke="black" stroke-miterlimit="10"/>
<path d="M1255.23 636.137C1257.48 636.137 1259.31 634.312 1259.31 632.06C1259.31 629.808 1257.48 627.983 1255.23 627.983C1252.98 627.983 1251.15 629.808 1251.15 632.06C1251.15 634.312 1252.98 636.137 1255.23 636.137Z" fill="#0D427C" stroke="black" stroke-miterlimit="10"/>
<path d="M1180.97 705.296C1183.22 705.296 1185.05 703.471 1185.05 701.219C1185.05 698.967 1183.22 697.142 1180.97 697.142C1178.72 697.142 1176.89 698.967 1176.89 701.219C1176.89 703.471 1178.72 705.296 1180.97 705.296Z" fill="#0D427C" stroke="black" stroke-miterlimit="10"/>
<path d="M1218.1 705.296C1220.36 705.296 1222.18 703.471 1222.18 701.219C1222.18 698.967 1220.36 697.142 1218.1 697.142C1215.85 697.142 1214.03 698.967 1214.03 701.219C1214.03 703.471 1215.85 705.296 1218.1 705.296Z" fill="#0D427C" stroke="black" stroke-miterlimit="10"/>
<path d="M1255.23 705.296C1257.48 705.296 1259.31 703.471 1259.31 701.219C1259.31 698.967 1257.48 697.142 1255.23 697.142C1252.98 697.142 1251.15 698.967 1251.15 701.219C1251.15 703.471 1252.98 705.296 1255.23 705.296Z" fill="#0D427C" stroke="black" stroke-miterlimit="10"/>
<path d="M1273.79 601.272C1276.04 601.272 1277.87 599.446 1277.87 597.195C1277.87 594.943 1276.04 593.117 1273.79 593.117C1271.54 593.117 1269.71 594.943 1269.71 597.195C1269.71 599.446 1271.54 601.272 1273.79 601.272Z" fill="#0D427C" stroke="black" stroke-miterlimit="10"/>
<path d="M1236.67 601.272C1238.92 601.272 1240.74 599.446 1240.74 597.195C1240.74 594.943 1238.92 593.117 1236.67 593.117C1234.41 593.117 1232.59 594.943 1232.59 597.195C1232.59 599.446 1234.41 601.272 1236.67 601.272Z" fill="#0D427C" stroke="black" stroke-miterlimit="10"/>
<path d="M1199.53 601.272C1201.78 601.272 1203.61 599.446 1203.61 597.195C1203.61 594.943 1201.78 593.117 1199.53 593.117C1197.28 593.117 1195.45 594.943 1195.45 597.195C1195.45 599.446 1197.28 601.272 1199.53 601.272Z" fill="#0D427C" stroke="black" stroke-miterlimit="10"/>
<path d="M1199.53 670.721C1201.78 670.721 1203.61 668.896 1203.61 666.644C1203.61 664.392 1201.78 662.567 1199.53 662.567C1197.28 662.567 1195.45 664.392 1195.45 666.644C1195.45 668.896 1197.28 670.721 1199.53 670.721Z" fill="#0D427C" stroke="black" stroke-miterlimit="10"/>
<path d="M1236.67 670.721C1238.92 670.721 1240.74 668.896 1240.74 666.644C1240.74 664.392 1238.92 662.567 1236.67 662.567C1234.41 662.567 1232.59 664.392 1232.59 666.644C1232.59 668.896 1234.41 670.721 1236.67 670.721Z" fill="#0D427C" stroke="black" stroke-miterlimit="10"/>
<path d="M1273.79 670.721C1276.04 670.721 1277.87 668.896 1277.87 666.644C1277.87 664.392 1276.04 662.567 1273.79 662.567C1271.54 662.567 1269.71 664.392 1269.71 666.644C1269.71 668.896 1271.54 670.721 1273.79 670.721Z" fill="#0D427C" stroke="black" stroke-miterlimit="10"/>
<path d="M1162.41 670.721C1164.66 670.721 1166.48 668.896 1166.48 666.644C1166.48 664.392 1164.66 662.567 1162.41 662.567C1160.15 662.567 1158.33 664.392 1158.33 666.644C1158.33 668.896 1160.15 670.721 1162.41 670.721Z" fill="#0D427C" stroke="black" stroke-miterlimit="10"/>
<path d="M1162.41 601.412C1164.66 601.412 1166.48 599.587 1166.48 597.335C1166.48 595.083 1164.66 593.258 1162.41 593.258C1160.15 593.258 1158.33 595.083 1158.33 597.335C1158.33 599.587 1160.15 601.412 1162.41 601.412Z" fill="#0D427C" stroke="black" stroke-miterlimit="10"/>
<path d="M1180.97 566.697C1183.22 566.697 1185.05 564.871 1185.05 562.62C1185.05 560.368 1183.22 558.543 1180.97 558.543C1178.72 558.543 1176.89 560.368 1176.89 562.62C1176.89 564.871 1178.72 566.697 1180.97 566.697Z" fill="#0D427C" stroke="black" stroke-miterlimit="10"/>
<path d="M1218.1 566.697C1220.36 566.697 1222.18 564.871 1222.18 562.62C1222.18 560.368 1220.36 558.543 1218.1 558.543C1215.85 558.543 1214.03 560.368 1214.03 562.62C1214.03 564.871 1215.85 566.697 1218.1 566.697Z" fill="#0D427C" stroke="black" stroke-miterlimit="10"/>
<path d="M1255.23 566.697C1257.48 566.697 1259.31 564.871 1259.31 562.62C1259.31 560.368 1257.48 558.543 1255.23 558.543C1252.98 558.543 1251.15 560.368 1251.15 562.62C1251.15 564.871 1252.98 566.697 1255.23 566.697Z" fill="#0D427C" stroke="black" stroke-miterlimit="10"/>
</g>
<path d="M1289.43 562.62H1162.5V701.228H1289.43V562.62Z" stroke="black" stroke-linecap="round" stroke-linejoin="round"/>
</g>
<defs>
<clipPath id="clip0_3840_1185">
<rect width="1280" height="800" fill="white"/>
</clipPath>
</defs>
</svg>
