<svg xmlns="http://www.w3.org/2000/svg" width="1280" height="800" viewBox="0 0 1280 800" fill="none">
<g clip-path="url(#clip0_3904_288)">
<rect width="1280" height="800" fill="#023430"/>
<path d="M510.514 713.753C545.945 713.753 574.672 742.479 574.672 777.91V777.108C574.672 785.085 575.838 792.791 578.009 800.065H302.002V777.91C302.002 742.479 330.728 713.753 366.159 713.753H510.514Z" fill="#00684A"/>
<path d="M799.223 424.242C834.654 424.242 863.381 452.968 863.381 488.399V800.065H731.731C733.9 792.792 735.065 785.086 735.065 777.108C735.065 732.816 699.161 696.911 654.868 696.911C619.437 696.911 590.711 668.185 590.711 632.754V488.399C590.711 452.969 619.437 424.242 654.868 424.242H799.223Z" fill="#00684A"/>
<path d="M1015.75 712.951C1073.7 712.951 1123.19 749.095 1142.93 800.065H888.578C908.318 749.095 957.814 712.951 1015.75 712.951Z" fill="#00684A"/>
<path d="M1087.93 424.242C1123.36 424.242 1152.09 452.968 1152.09 488.399C1152.09 532.668 1187.99 568.597 1232.29 568.597C1251.23 568.597 1268.26 576.81 1280 589.868V800.065H1160C1139.53 740.063 1082.68 696.911 1015.75 696.911H943.577C908.146 696.911 879.42 668.185 879.42 632.754V488.399C879.42 452.969 908.146 424.242 943.577 424.242H1087.93Z" fill="#00684A"/>
<path d="M510.514 568.597C545.945 568.597 574.672 597.323 574.672 632.754C574.672 668.185 545.945 696.911 510.514 696.911C475.083 696.911 446.356 668.185 446.356 632.754C446.357 597.323 475.083 568.597 510.514 568.597Z" fill="#00684A"/>
<path d="M1232.65 424.266C1251.4 424.266 1268.27 432.305 1280 445.123V531.757C1268.27 544.575 1251.4 552.615 1232.65 552.615C1197.21 552.615 1168.48 523.883 1168.48 488.44C1168.48 452.998 1197.21 424.266 1232.65 424.266Z" fill="#00684A"/>
<path d="M1087.82 279.96C1123.27 279.96 1152 308.975 1152 344.418C1152 379.861 1123.27 408.876 1087.82 408.876H943.749C908.306 408.876 879.574 379.861 879.574 344.418C879.574 308.975 908.306 279.96 943.749 279.96H1087.82Z" fill="#00684A"/>
<path d="M1151.05 0.0654297C1142.72 67.3831 1085.33 119.493 1015.75 119.493H943.577C899.309 119.493 863.381 155.398 863.381 199.69V271.868C863.381 347.164 802.341 408.202 727.046 408.202C651.75 408.202 590.711 347.164 590.711 271.868C590.711 196.573 651.75 135.533 727.046 135.533H799.223C843.491 135.533 879.42 99.6287 879.42 55.3359V0.0654297H1151.05Z" fill="#00684A"/>
<path d="M1280 386.932C1268.26 399.99 1251.23 408.202 1232.29 408.202C1196.85 408.202 1168.13 379.478 1168.13 344.045C1168.13 299.752 1132.2 263.848 1087.93 263.848H943.577C908.144 263.847 879.42 235.124 879.42 199.69C879.42 164.257 908.144 135.533 943.577 135.533H1015.75C1094.19 135.533 1158.79 76.2666 1167.2 0.0654297H1280V386.932Z" fill="#00684A"/>
<path d="M863.381 55.3359C863.381 90.7692 834.656 119.493 799.223 119.493H654.868C619.435 119.493 590.711 90.769 590.711 55.3359V0.0654297H863.381V55.3359Z" fill="#00684A"/>
<mask id="mask0_3904_288" style="mask-type:alpha" maskUnits="userSpaceOnUse" x="302" y="0" width="978" height="800">
<path d="M510.512 713.688C545.943 713.688 574.67 742.414 574.67 777.845V777.043C574.67 785.02 575.836 792.726 578.007 800H302V777.845C302 742.414 330.726 713.688 366.157 713.688H510.512Z" fill="#00ED64"/>
<path d="M799.221 424.177C834.652 424.177 863.379 452.903 863.379 488.334V800H731.729C733.898 792.727 735.063 785.021 735.063 777.043C735.063 732.75 699.159 696.846 654.866 696.846C619.435 696.846 590.709 668.119 590.709 632.688V488.334C590.709 452.903 619.435 424.177 654.866 424.177H799.221Z" fill="#00ED64"/>
<path d="M1015.75 712.886C1073.69 712.886 1123.19 749.03 1142.93 800H888.576C908.316 749.029 957.812 712.886 1015.75 712.886Z" fill="#00ED64"/>
<path d="M1087.93 424.177C1123.36 424.177 1152.09 452.903 1152.09 488.334C1152.09 532.603 1187.99 568.531 1232.28 568.531C1251.23 568.531 1268.26 576.744 1280 589.803V800H1160C1139.53 739.997 1082.68 696.846 1015.75 696.846H943.575C908.144 696.846 879.418 668.119 879.418 632.688V488.334C879.418 452.903 908.144 424.177 943.575 424.177H1087.93Z" fill="#00ED64"/>
<path d="M510.512 568.531C545.943 568.531 574.67 597.258 574.67 632.688C574.67 668.12 545.943 696.846 510.512 696.846C475.081 696.846 446.354 668.119 446.354 632.688C446.355 597.258 475.081 568.531 510.512 568.531Z" fill="#00ED64"/>
<path d="M1232.65 424.2C1251.4 424.2 1268.27 432.239 1280 445.058V531.691C1268.27 544.51 1251.4 552.55 1232.65 552.55C1197.21 552.55 1168.48 523.818 1168.48 488.375C1168.48 452.932 1197.21 424.2 1232.65 424.2Z" fill="#00ED64"/>
<path d="M1087.82 279.895C1123.27 279.895 1152 308.91 1152 344.353C1152 379.795 1123.27 408.811 1087.82 408.811H943.747C908.304 408.811 879.572 379.795 879.572 344.353C879.572 308.91 908.304 279.895 943.747 279.895H1087.82Z" fill="#00ED64"/>
<path d="M1151.05 0C1142.72 67.3177 1085.32 119.428 1015.75 119.428H943.575C899.307 119.428 863.379 155.332 863.379 199.625V271.803C863.379 347.098 802.339 408.137 727.044 408.137C651.748 408.137 590.709 347.098 590.709 271.803C590.709 196.507 651.748 135.468 727.044 135.468H799.221C843.489 135.468 879.418 99.5633 879.418 55.2705V0H1151.05Z" fill="#00ED64"/>
<path d="M1280 386.866C1268.26 399.924 1251.23 408.137 1232.28 408.137C1196.85 408.137 1168.13 379.413 1168.13 343.979C1168.13 299.687 1132.2 263.782 1087.93 263.782H943.575C908.142 263.782 879.418 235.058 879.418 199.625C879.418 164.192 908.142 135.468 943.575 135.468H1015.75C1094.19 135.468 1158.79 76.2012 1167.2 0H1280V386.866Z" fill="#00ED64"/>
<path d="M863.379 55.2705C863.379 90.7037 834.654 119.428 799.221 119.428H654.866C619.433 119.428 590.709 90.7036 590.709 55.2705V0H863.379V55.2705Z" fill="#00ED64"/>
</mask>
<g mask="url(#mask0_3904_288)">
<g filter="url(#filter0_f_3904_288)">
<ellipse cx="393.229" cy="339.854" rx="393.229" ry="339.854" transform="matrix(-0.830243 0.557401 0.492549 0.870285 1255.44 97.8154)" fill="#00ED64"/>
</g>
</g>
</g>
<defs>
<filter id="filter0_f_3904_288" x="535.444" y="50.6644" width="1121.83" height="1124.21" filterUnits="userSpaceOnUse" color-interpolation-filters="sRGB">
<feFlood flood-opacity="0" result="BackgroundImageFix"/>
<feBlend mode="normal" in="SourceGraphic" in2="BackgroundImageFix" result="shape"/>
<feGaussianBlur stdDeviation="96.975" result="effect1_foregroundBlur_3904_288"/>
</filter>
<clipPath id="clip0_3904_288">
<rect width="1280" height="800" fill="white"/>
</clipPath>
</defs>
</svg>