<svg width="28" height="12" viewBox="0 0 28 12" fill="none" xmlns="http://www.w3.org/2000/svg">
<path d="M17.1687 6.8064C16.8476 7.05512 16.6718 7.41343 16.6716 7.82593C16.6716 8.24223 16.8498 8.6068 17.1638 8.85522C17.3995 9.04167 17.6913 9.14628 18.0046 9.18433C17.9806 9.18532 17.9566 9.18725 17.9324 9.18726C17.4418 9.18726 17.0628 9.03608 16.8132 8.81128C16.568 8.59041 16.4158 8.27098 16.4158 7.86108C16.4158 7.47425 16.5564 7.19388 16.8132 6.98901C16.9269 6.89839 17.0715 6.81759 17.2478 6.75073C17.221 6.76876 17.1942 6.78667 17.1687 6.8064ZM6.34839 3.31323C6.55016 3.32921 6.95079 3.37975 7.30347 3.65601C7.00032 3.95823 6.63481 4.46227 6.56714 5.17456L6.5564 5.43433C6.56331 6.27834 6.93948 6.85487 7.31421 7.21265C7.42878 7.32201 7.54503 7.40835 7.64819 7.47925C7.5586 7.69098 7.42318 7.96876 7.23022 8.25073L7.22925 8.25171C7.03658 8.53533 6.87494 8.7634 6.70093 8.92554C6.53787 9.07733 6.39855 9.13866 6.24976 9.14136C6.0691 9.14471 5.95816 9.09901 5.74683 9.00854C5.52143 8.91206 5.22225 8.78687 4.77417 8.78687C4.33302 8.78694 4.03374 8.90172 3.79956 8.99976C3.5723 9.09491 3.45882 9.1451 3.28198 9.1521C3.17113 9.15583 3.03199 9.10587 2.84448 8.9314C2.65512 8.75517 2.475 8.50735 2.28589 8.22925L2.28394 8.22632L2.15601 8.02905C1.86223 7.54576 1.60811 6.91073 1.49292 6.25366C1.36068 5.49924 1.42146 4.77846 1.73999 4.22925L1.74292 4.22339C2.04721 3.68432 2.59735 3.35599 3.17554 3.34741H3.17749C3.36411 3.34399 3.56635 3.40628 3.81714 3.50366C3.9281 3.54675 4.06955 3.60535 4.19312 3.64722C4.31668 3.68907 4.48056 3.73608 4.65308 3.73608C4.83416 3.73602 5.01006 3.68016 5.1355 3.6355C5.25294 3.59368 5.43218 3.52034 5.54663 3.47729C5.82512 3.37261 6.08678 3.29816 6.34839 3.31323ZM12.8425 1.77026C13.5312 1.77029 14.0838 2.00547 14.4626 2.38257C14.8412 2.75949 15.0788 3.31029 15.0789 4.00073C15.0789 4.69166 14.8371 5.24477 14.4509 5.62476C14.064 6.00547 13.5001 6.24292 12.8015 6.24292H10.5164V9.08374H10.2253V1.77026H12.8425ZM10.5164 6.15991H12.4968C13.1446 6.15987 13.7223 5.98453 14.1414 5.59058C14.5649 5.19243 14.7595 4.63418 14.7595 4.00659C14.7595 3.37924 14.5652 2.82226 14.1423 2.42554C13.7238 2.03317 13.147 1.85918 12.5027 1.85913H10.5164V6.15991ZM5.77417 1.35815C5.71314 1.50121 5.63154 1.63809 5.53296 1.76245C5.42835 1.88384 5.30627 1.98483 5.17847 2.06128C5.24342 1.91162 5.33027 1.76877 5.43042 1.65308L5.4314 1.65405L5.43921 1.64429C5.52903 1.53563 5.64622 1.43791 5.77417 1.35815ZM24.282 9.50171L24.2527 9.41968L22.3054 4.02319H22.573L23.9958 8.60229L24.1052 8.95483H24.864L24.9734 8.60229L26.3972 4.02319H26.6335L24.6013 9.73218L24.6003 9.73413C24.3512 10.4402 24.1108 10.8199 23.8474 11.0339C23.5991 11.2356 23.2655 11.3416 22.699 11.3416C22.6968 11.3416 22.6946 11.3406 22.6921 11.3406V11.325C23.0149 11.3119 23.3258 11.2312 23.5906 11.0203C23.8746 10.7939 24.0403 10.4697 24.1501 10.1101L24.1726 10.0388V10.03C24.1819 9.9983 24.1936 9.95855 24.2058 9.91772C24.2192 9.87304 24.2335 9.8266 24.2439 9.79175C24.2491 9.77442 24.254 9.75811 24.2576 9.74585C24.2592 9.74006 24.2616 9.73296 24.2634 9.72632C24.2642 9.72341 24.2656 9.71694 24.2673 9.70972C24.2681 9.70642 24.2703 9.69873 24.2722 9.68921C24.2732 9.68445 24.2744 9.67504 24.2761 9.66382C24.2771 9.65716 24.282 9.62753 24.282 9.5896V9.50171ZM20.3279 5.50464C20.3279 5.04918 20.1697 4.63377 19.8367 4.33862C19.5115 4.05051 19.0763 3.92749 18.6121 3.92749C18.1739 3.9275 17.7727 4.03239 17.4529 4.2605C17.2465 4.40774 17.0886 4.59698 16.9802 4.81421H16.7976C16.8864 4.63587 17.0146 4.47807 17.1814 4.34644C17.5047 4.09144 17.9967 3.91385 18.658 3.91382C19.3086 3.91382 19.788 4.08587 20.0945 4.3396C20.3909 4.58518 20.5662 4.93897 20.5662 5.40698V9.08374H20.3738V8.08667H20.157C20.2659 7.85558 20.3279 7.59538 20.3279 7.31323V5.50464Z" fill="#000008" stroke="black"/>
</svg>
